<svg xmlns="http://www.w3.org/2000/svg" width="92.006" height="21.138" viewBox="0 0 92.006 21.138"><defs><style>.a{fill:#fff;stroke:rgba(0,0,0,0);}</style></defs><path class="a" d="M301.37-11148.863v-13.8A6.336,6.336,0,0,1,307.7-11169h7.47a6.333,6.333,0,0,1,6.332,6.335v7.471a6.331,6.331,0,0,1-6.332,6.332Zm-23.624,0v-13.8a6.336,6.336,0,0,1,6.335-6.335h7.47a6.333,6.333,0,0,1,6.332,6.335v7.471a6.331,6.331,0,0,1-6.332,6.332Zm-23.621,0v-13.8a6.333,6.333,0,0,1,6.332-6.335h7.47a6.336,6.336,0,0,1,6.335,6.335v7.471a6.333,6.333,0,0,1-6.335,6.332Zm1.973-13.8v11.829h11.829a4.364,4.364,0,0,0,4.362-4.358v-7.471a4.367,4.367,0,0,0-4.362-4.361h-7.47A4.364,4.364,0,0,0,256.1-11162.666Zm-25.6,13.8v-13.8a6.333,6.333,0,0,1,6.332-6.335h7.473a6.335,6.335,0,0,1,6.332,6.335v7.471a6.333,6.333,0,0,1-6.332,6.332Zm31.8-5.1-3.42-2.935a.7.7,0,0,1-.076-.979l.9-1.049a.693.693,0,0,1,.978-.075l1.811,1.547,4.5-5.479a.7.7,0,0,1,.975-.1l1.074.878v0a.7.7,0,0,1,.1.975l-5.856,7.123a.7.7,0,0,1-.474.249.435.435,0,0,1-.062,0A.7.7,0,0,1,262.3-11153.965Z" transform="translate(-230 11169.501)"/></svg>