<svg xmlns="http://www.w3.org/2000/svg" width="24.997" height="29.626" viewBox="0 0 24.997 29.626"><defs><style>.a{fill:#bf392c;}.b{fill:#e2574c;}.c{fill:#efc75e;}.d{fill:#d7b354;}</style></defs><g transform="translate(-23.472)"><path class="a" d="M90.783,0H82.451L70.415,17.591h8.332Z" transform="translate(-42.314)"/><path class="b" d="M23.472,0H31.8L43.84,17.591H35.508Z"/><path class="c" d="M61.822,93.887a10.184,10.184,0,1,1-10.184,10.184A10.155,10.155,0,0,1,61.822,93.887Z" transform="translate(-25.389 -84.629)"/><path class="d" d="M87.211,122.053a7.407,7.407,0,1,0,7.407,7.407A7.428,7.428,0,0,0,87.211,122.053Zm0,12.962a5.555,5.555,0,1,1,5.555-5.555A5.571,5.571,0,0,1,87.211,135.015Z" transform="translate(-50.777 -110.017)"/></g></svg>