<svg xmlns="http://www.w3.org/2000/svg" width="206.942" height="45.789" viewBox="0 0 206.942 45.789"><defs><style>.a{fill:#edcb11;}.b{fill:#84ce2d;}.c{fill:#d65555;}.d{fill:#6dc2ef;}</style></defs><path class="a" d="M107.692,255.266H90.7a14.4,14.4,0,0,0-14.4,14.4v31.39h31.389a14.4,14.4,0,0,0,14.4-14.4v-16.99A14.4,14.4,0,0,0,107.692,255.266Z" transform="translate(-76.303 -255.266)"/><path class="b" d="M215.459,255.266h-16.99a14.4,14.4,0,0,0-14.4,14.4v31.39h31.389a14.4,14.4,0,0,0,14.4-14.4v-16.99A14.4,14.4,0,0,0,215.459,255.266Zm9.913,31.39a9.925,9.925,0,0,1-9.913,9.913h-26.9v-26.9a9.925,9.925,0,0,1,9.913-9.913h16.99a9.925,9.925,0,0,1,9.913,9.913Z" transform="translate(-130.353 -255.266)"/><path class="c" d="M323.226,255.266h-16.99a14.4,14.4,0,0,0-14.4,14.4v31.39h31.389a14.4,14.4,0,0,0,14.4-14.4v-16.99A14.4,14.4,0,0,0,323.226,255.266Z" transform="translate(-184.402 -255.266)"/><path class="d" d="M430.994,255.266H414a14.4,14.4,0,0,0-14.4,14.4v31.39h31.39a14.4,14.4,0,0,0,14.4-14.4v-16.99A14.4,14.4,0,0,0,430.994,255.266Z" transform="translate(-238.452 -255.266)"/><path class="b" d="M228.349,284.14l-2.436-2a1.576,1.576,0,0,0-2.219.217L213.454,294.82l-4.115-3.521a1.577,1.577,0,0,0-2.223.172l-2.051,2.389a1.577,1.577,0,0,0,.171,2.223l7.776,6.669a1.565,1.565,0,0,0,1.023.379,1.042,1.042,0,0,0,.141-.006,1.569,1.569,0,0,0,1.08-.569l13.309-16.194a1.576,1.576,0,0,0-.215-2.219Z" transform="translate(-140.692 -268.566)"/></svg>