<svg xmlns="http://www.w3.org/2000/svg" width="25.002" height="29.633" viewBox="0 0 25.002 29.633"><defs><style>.a{fill:#bf392c;}.b{fill:#e2574c;}.c{fill:#e4e7e7;}.d{fill:#cdcfcf;}</style></defs><g transform="translate(-23.472)"><path class="a" d="M90.788,0H82.453L70.415,17.594h8.334Z" transform="translate(-42.313)"/><path class="b" d="M23.472,0h8.334L43.844,17.594H35.51Z"/><path class="c" d="M61.824,93.887a10.186,10.186,0,1,1-10.186,10.186A10.157,10.157,0,0,1,61.824,93.887Z" transform="translate(-25.388 -84.627)"/><path class="d" d="M87.212,122.053a7.408,7.408,0,1,0,7.408,7.408A7.43,7.43,0,0,0,87.212,122.053Zm0,12.964a5.556,5.556,0,1,1,5.556-5.556A5.572,5.572,0,0,1,87.212,135.017Z" transform="translate(-50.776 -110.015)"/></g></svg>